# xmcd
#
# Track frame offsets:
# 150
# 22010
# 44214
# 54379
# 78386
#
# Disc length: 1538 seconds
#
# Revision: 0
# Processed by: cddbd v1.5PL3 Copyright (c) Steve Scherf et al.
# Submitted via: Audion 2.6.0 (http://www.panic.com/audion/)
#
DISCID=3e060005
DTITLE=eddie harris - the genius of eddie harris
DYEAR=1900
DGENRE=
TTITLE0=the river nile
TTITLE1=down
TTITLE2=there is no time
TTITLE3=fontessa
TTITLE4=olifant gesang
EXTD=
EXTT0=
EXTT1=
EXTT2=
EXTT3=
EXTT4=
PLAYORDER=
